<svg width="16" height="16" viewBox="0 0 16 16" fill="none" xmlns="http://www.w3.org/2000/svg">
<path d="M15.4718 12.9863C15.7147 13.247 15.8469 13.5917 15.8406 13.948C15.8343 14.3042 15.69 14.6441 15.4381 14.896C15.1862 15.1479 14.8463 15.2922 14.4901 15.2985C14.1339 15.3048 13.7891 15.1726 13.5285 14.9297L7.57012 8.97134C7.31263 8.71353 7.168 8.36405 7.168 7.99967C7.168 7.6353 7.31263 7.28582 7.57012 7.02801L13.5285 1.06968C13.7891 0.826796 14.1339 0.694569 14.4901 0.700854C14.8463 0.70714 15.1862 0.851446 15.4381 1.10337C15.69 1.35529 15.8343 1.69517 15.8406 2.05139C15.8469 2.4076 15.7147 2.75235 15.4718 3.01301L10.4851 7.99967L15.4718 12.9863ZM2.12512 0.666342C1.76045 0.666342 1.41071 0.811207 1.15285 1.06907C0.894986 1.32693 0.750119 1.67667 0.750119 2.04134L0.750118 13.958C0.750118 14.3227 0.894985 14.6724 1.15285 14.9303C1.41071 15.1881 1.76045 15.333 2.12512 15.333C2.48979 15.333 2.83953 15.1881 3.09739 14.9303C3.35525 14.6724 3.50012 14.3227 3.50012 13.958L3.50012 2.04134C3.50012 1.28234 2.88412 0.666342 2.12512 0.666342Z" fill="#535050"/>
</svg>
