<svg width="16" height="16" viewBox="0 0 16 16" fill="none" xmlns="http://www.w3.org/2000/svg">
<path d="M0.528215 3.01366C0.285335 2.753 0.153109 2.40825 0.159394 2.05203C0.165679 1.69582 0.309984 1.35594 0.561908 1.10402C0.813832 0.852095 1.1537 0.70779 1.50992 0.701505C1.86614 0.69522 2.21089 0.827446 2.47155 1.07033L8.42988 7.02866C8.68737 7.28647 8.832 7.63595 8.832 8.00032C8.832 8.3647 8.68737 8.71418 8.42988 8.97199L2.47155 14.9303C2.21089 15.1732 1.86614 15.3054 1.50992 15.2991C1.1537 15.2929 0.813832 15.1486 0.561908 14.8966C0.309984 14.6447 0.165679 14.3048 0.159394 13.9486C0.153109 13.5924 0.285335 13.2476 0.528215 12.987L5.51488 8.00032L0.528215 3.01366ZM13.8749 15.3337C14.2396 15.3337 14.5893 15.1888 14.8472 14.9309C15.105 14.6731 15.2499 14.3233 15.2499 13.9587V2.04199C15.2499 1.67732 15.105 1.32758 14.8472 1.06972C14.5893 0.811858 14.2396 0.666992 13.8749 0.666992C13.5102 0.666992 13.1605 0.811858 12.9026 1.06972C12.6447 1.32758 12.4999 1.67732 12.4999 2.04199V13.9587C12.4999 14.7177 13.1159 15.3337 13.8749 15.3337Z" fill="#535050"/>
</svg>
