<svg width="14" height="18" viewBox="0 0 14 18" fill="none" xmlns="http://www.w3.org/2000/svg">
<path d="M7 17C7 17 13 12.2 13 7C13 3.6864 10.3136 1 7 1C3.6864 1 1 3.6864 1 7C1 12.2 7 17 7 17Z" stroke="black" stroke-width="1.33333" stroke-linejoin="round"/>
<path d="M7.0001 9.40001C7.31527 9.40001 7.62736 9.33793 7.91854 9.21732C8.20972 9.09671 8.47429 8.91992 8.69715 8.69706C8.92001 8.4742 9.0968 8.20963 9.21741 7.91845C9.33802 7.62726 9.4001 7.31518 9.4001 7.00001C9.4001 6.68483 9.33802 6.37275 9.21741 6.08157C9.0968 5.79038 8.92001 5.52581 8.69715 5.30295C8.47429 5.08009 8.20972 4.90331 7.91854 4.7827C7.62736 4.66208 7.31527 4.60001 7.0001 4.60001C6.36358 4.60001 5.75313 4.85286 5.30304 5.30295C4.85295 5.75304 4.6001 6.36349 4.6001 7.00001C4.6001 7.63653 4.85295 8.24698 5.30304 8.69706C5.75313 9.14715 6.36358 9.40001 7.0001 9.40001V9.40001Z" stroke="black" stroke-width="1.33333" stroke-linejoin="round"/>
</svg>
