<svg width="11" height="16" viewBox="0 0 11 16" fill="none" xmlns="http://www.w3.org/2000/svg">
<path d="M1.18969 0.506007C1.05836 0.637068 0.954164 0.792744 0.883074 0.964123C0.811983 1.1355 0.775391 1.31922 0.775391 1.50476C0.775391 1.6903 0.811983 1.87401 0.883074 2.04539C0.954164 2.21677 1.05836 2.37245 1.18969 2.50351L6.68635 8.00017L1.18969 13.4968C0.924802 13.7617 0.77599 14.121 0.77599 14.4956C0.77599 14.8702 0.924802 15.2295 1.18969 15.4943C1.45457 15.7592 1.81383 15.908 2.18844 15.908C2.56304 15.908 2.9223 15.7592 3.18719 15.4943L9.68969 8.99184C9.82102 8.86078 9.92521 8.7051 9.9963 8.53373C10.0674 8.36235 10.104 8.17863 10.104 7.99309C10.104 7.80755 10.0674 7.62384 9.9963 7.45246C9.92521 7.28108 9.82102 7.1254 9.68969 6.99434L3.18719 0.49184C2.64885 -0.0464933 1.74219 -0.046493 1.18969 0.506007Z" fill="#535050"/>
</svg>
