<?xml version="1.0" encoding="utf-8"?>
<!-- Generator: Adobe Illustrator 27.0.1, SVG Export Plug-In . SVG Version: 6.00 Build 0)  -->
<svg version="1.1" id="圖層_1" xmlns="http://www.w3.org/2000/svg" xmlns:xlink="http://www.w3.org/1999/xlink" x="0px" y="0px"
	 viewBox="0 0 23 24" style="enable-background:new 0 0 23 24;" xml:space="preserve">
<style type="text/css">
	.st0{fill-rule:evenodd;clip-rule:evenodd;}
</style>
<path class="st0" d="M20.8,16.5C20.8,16.5,20.8,16.5,20.8,16.5c-0.3-1.4-0.7-2.7-0.7-4.1V8.6c0-1.2-0.2-2.4-0.7-3.4
	c-0.5-1.2-1.2-2.1-2.1-2.9C16.5,1.4,14,0,11.5,0s-5,1.4-5.8,2.2C4.8,3.1,4.1,3.9,3.6,5.1c-0.5,1-0.7,2.2-0.7,3.4v3.8
	c0,1.4-0.3,2.7-0.7,4.1c0,0,0,0,0,0l-0.7,1.9c-0.2,0.6-0.1,1.3,0.3,1.8l0.3,0.4h0h6c0,0.6,0.2,1.3,0.6,1.9c0.1,0.2,0.3,0.4,0.4,0.5
	c0,0,0,0,0,0c0.5,0.7,1.5,1,2.4,1s1.9-0.3,2.4-1c0,0,0,0,0,0c0.2-0.2,0.3-0.4,0.4-0.5c0.4-0.6,0.6-1.2,0.6-1.9h6h0l0.3-0.4
	c0.4-0.5,0.5-1.2,0.3-1.8L20.8,16.5z M13.2,20.9c-0.1,0.3-0.2,0.6-0.5,0.8c-0.3,0.3-0.6,0.4-0.9,0.5c-0.1,0-0.2,0-0.3,0
	c-0.1,0-0.2,0-0.3,0c-0.3-0.1-0.7-0.2-0.9-0.5s-0.4-0.5-0.5-0.8c0-0.1,0-0.2,0-0.4h3.4C13.2,20.7,13.2,20.8,13.2,20.9z M3.3,18.9
	L4,17c0,0,0,0,0,0c0.3-0.9,0.6-3.1,0.6-3.3c0.1-0.5,0.1-0.9,0.1-1.4V8.6c0-1,0.2-1.9,0.5-2.7c0.3-0.9,1-1.7,1.7-2.2
	c0.4-0.4,1.3-1,2.2-1.4c0.6-0.3,1.5-0.5,2.5-0.5s1.9,0.2,2.5,0.5c0.9,0.4,1.7,0.9,2.2,1.4c0.7,0.5,1.4,1.4,1.7,2.2
	c0.3,0.9,0.5,1.7,0.5,2.7v3.8c0,0.5,0,0.9,0.1,1.4c0,0.3,0.3,2.4,0.6,3.3c0,0,0,0,0,0l0.7,1.9H3.3z"/>
</svg>
