<svg width="16" height="14" viewBox="0 0 16 14" fill="none" xmlns="http://www.w3.org/2000/svg">
<path fill-rule="evenodd" clip-rule="evenodd" d="M-6.12002e-07 6.99952C-6.35185e-07 6.73433 0.105344 6.48001 0.292859 6.29249C0.480375 6.10498 0.7347 5.99963 0.999888 5.99963L12.5846 5.99963L8.29107 1.70811C8.19811 1.61515 8.12436 1.50478 8.07405 1.38331C8.02374 1.26185 7.99784 1.13166 7.99784 1.00019C7.99784 0.868716 8.02374 0.738531 8.07405 0.617065C8.12436 0.495599 8.19811 0.385234 8.29107 0.292268C8.38404 0.199303 8.4944 0.125559 8.61587 0.0752455C8.73733 0.0249325 8.86752 -0.000961634 8.99899 -0.000961645C9.13047 -0.000961657 9.26065 0.0249325 9.38212 0.0752455C9.50358 0.125558 9.61395 0.199303 9.70691 0.292268L15.7062 6.2916C15.7994 6.38448 15.8732 6.49482 15.9236 6.61629C15.9741 6.73777 16 6.868 16 6.99952C16 7.13104 15.9741 7.26127 15.9236 7.38274C15.8732 7.50422 15.7994 7.61456 15.7062 7.70744L9.70692 13.7068C9.51916 13.8945 9.26452 14 8.99899 14C8.73347 14 8.47883 13.8945 8.29107 13.7068C8.10332 13.519 7.99784 13.2644 7.99784 12.9988C7.99784 12.7333 8.10332 12.4787 8.29107 12.2909L12.5846 7.99941L0.999888 7.99941C0.734701 7.99941 0.480375 7.89406 0.292859 7.70655C0.105344 7.51903 -5.88818e-07 7.26471 -6.12002e-07 6.99952Z" fill="white"/>
</svg>
