<svg width="110" height="44" viewBox="0 0 110 44" fill="none" xmlns="http://www.w3.org/2000/svg">
<path d="M103.63 39.5781C103.629 38.5903 103.627 37.6037 103.625 36.6159C103.87 36.39 104.178 36.4258 104.472 36.4206C105.108 36.4092 105.746 36.4168 106.385 36.4143C106.782 36.413 106.97 36.2343 106.968 35.8374C106.967 35.646 106.974 35.4545 106.974 35.2644C106.974 24.9164 106.974 14.5685 106.974 4.21932C106.974 3.42463 106.574 3.02644 105.775 3.02474C94.0215 3.02474 82.2697 3.02474 70.5166 3.02474C70.389 3.02474 70.2613 3.02218 70.1337 3.02729C69.4407 3.04899 69.3769 3.10769 69.3667 3.80709C69.3565 4.48733 69.3705 5.16758 69.3603 5.84655C69.3565 6.12095 69.3743 6.40555 69.1612 6.62762C68.1785 6.62762 67.1957 6.62762 66.213 6.62762C66.2105 4.60858 66.2207 2.58953 66.1964 0.570488C66.1913 0.123797 66.3177 0 66.7657 0C80.987 0.0114863 95.2084 0.0114863 109.43 0C109.873 0 110 0.111035 110 0.562831C109.987 13.379 109.989 26.1952 110 39.0115C110 39.453 109.888 39.5909 109.436 39.5858C107.503 39.5628 105.568 39.5781 103.633 39.5781H103.63Z" fill="black"/>
<path d="M32.4568 25.2533C32.4568 22.8935 32.4721 20.5337 32.444 18.1739C32.4377 17.68 32.5883 17.5524 33.0554 17.5843C33.6476 17.6238 34.2461 17.6175 34.8409 17.5855C35.2391 17.5639 35.3412 17.7004 35.336 18.0897C35.3156 19.8113 35.345 21.5343 35.3156 23.256C35.308 23.7333 35.4318 23.8686 35.9142 23.8571C37.3385 23.8226 38.7641 23.8252 40.1871 23.8558C40.6708 23.866 40.8431 23.7614 40.8316 23.2356C40.7946 21.5573 40.8316 19.8764 40.8087 18.1969C40.8023 17.7578 40.861 17.5728 41.3791 17.5792C43.9304 17.6111 46.4829 17.6047 49.0342 17.583C49.486 17.5792 49.6276 17.7119 49.5983 18.1548C49.5625 18.6844 49.5676 19.2179 49.5983 19.7488C49.6212 20.1534 49.4617 20.2504 49.0814 20.2466C47.4235 20.2287 45.7644 20.2631 44.1065 20.2249C43.5552 20.2121 43.4275 20.3908 43.4556 20.9051C43.499 21.7104 43.4926 22.5208 43.4556 23.3274C43.4352 23.769 43.6024 23.8571 44.0044 23.852C45.5985 23.8328 47.1938 23.8571 48.7891 23.8354C49.2154 23.829 49.403 23.9184 49.3685 24.388C49.3277 24.9585 49.3277 25.5379 49.3685 26.1084C49.4017 26.5794 49.2116 26.67 48.7853 26.6649C47.1912 26.6432 45.5959 26.6674 44.0006 26.6483C43.6062 26.6432 43.4378 26.721 43.4556 27.1639C43.4914 28.0343 43.4875 28.9073 43.4569 29.7777C43.4429 30.1797 43.5756 30.2754 43.961 30.2703C45.6406 30.2499 47.3214 30.2805 48.9997 30.2499C49.4872 30.2409 49.6417 30.3864 49.597 30.8587C49.5319 31.53 49.8778 32.4297 49.4591 32.8139C49.0954 33.147 48.2084 32.9211 47.5524 32.9236C45.49 32.9288 43.4275 32.9109 41.3651 32.9364C40.912 32.9415 40.8023 32.8164 40.8099 32.3736C40.8367 30.6519 40.8048 28.929 40.8316 27.2073C40.8393 26.7555 40.7078 26.6381 40.265 26.647C38.7985 26.6751 37.3308 26.6776 35.8644 26.6457C35.3935 26.6355 35.3144 26.7989 35.3195 27.2239C35.3424 28.9238 35.3144 30.6251 35.3399 32.3264C35.3463 32.7756 35.2722 32.9811 34.7617 32.9377C34.1708 32.8879 33.5697 32.8956 32.9775 32.9364C32.5398 32.9658 32.4491 32.805 32.4517 32.3991C32.4683 30.0176 32.4594 27.6374 32.4594 25.2559L32.4568 25.2533Z" fill="black"/>
<path d="M15.9364 28.1823C14.6193 31.4483 10.7267 33.7264 6.84172 32.99C2.67729 32.2 -0.0590175 28.5818 0.000966754 24.1749C0.0571222 20.1559 2.94658 16.7024 6.86342 15.9736C10.5722 15.2832 14.7009 17.4987 16.0295 20.9319C14.9358 20.9319 13.8599 20.9268 12.784 20.9344C12.4739 20.937 12.3526 20.692 12.1829 20.5184C11.1682 19.4718 9.96346 18.8618 8.48682 18.752C6.13468 18.5772 4.27261 20.2031 3.56173 21.9874C2.72323 24.0906 2.9236 26.1097 4.1603 27.9998C5.9075 30.6685 9.45934 31.0284 11.8281 28.7579C12.2837 28.3202 12.7189 28.1364 13.3353 28.1721C14.1828 28.2206 15.034 28.1836 15.9364 28.1836V28.1823Z" fill="black"/>
<path d="M17.0891 25.2546C17.0891 22.8743 17.098 20.4941 17.0801 18.1139C17.0776 17.7106 17.1669 17.5536 17.5996 17.5779C18.2773 17.6149 18.9601 17.5996 19.639 17.583C19.9709 17.574 20.133 17.6353 20.133 18.0284C20.1202 22.8526 20.1215 27.6769 20.1317 32.5012C20.1317 32.8394 20.0258 32.9402 19.6952 32.93C18.9945 32.9083 18.2913 32.8943 17.5919 32.9338C17.1491 32.9593 17.0776 32.7883 17.0801 32.394C17.0967 30.0137 17.0878 27.6335 17.0878 25.2533L17.0891 25.2546Z" fill="black"/>
<path d="M18.6666 40.4536C18.6666 39.7951 18.6603 39.1365 18.6705 38.4793C18.673 38.3121 18.5722 38.0275 18.8734 38.0441C19.1389 38.0594 19.5485 37.8297 19.6506 38.1908C19.7668 38.6005 19.8714 38.3414 20.0054 38.261C20.7125 37.836 21.417 37.8501 22.0908 38.3146C22.318 38.4716 22.4418 38.561 22.7264 38.3555C23.3735 37.8871 24.1137 37.8156 24.8271 38.2087C25.4946 38.5763 25.681 39.2093 25.6631 39.9406C25.6427 40.8314 25.635 41.7248 25.6682 42.6156C25.6835 43.0432 25.4614 43.0381 25.1615 43.0291C24.8782 43.0215 24.6178 43.0713 24.6344 42.6258C24.6651 41.7771 24.6523 40.9271 24.6395 40.0771C24.6293 39.3739 24.2745 38.9706 23.69 38.9553C23.0889 38.94 22.7098 39.3663 22.6996 40.0988C22.6881 40.9271 22.669 41.7567 22.7073 42.5824C22.729 43.0521 22.4737 43.0189 22.1559 43.0317C21.8241 43.0445 21.6556 42.9883 21.671 42.5927C21.7016 41.7873 21.6901 40.9795 21.6773 40.1716C21.6658 39.3943 21.2894 38.9502 20.6729 38.9528C20.0667 38.9553 19.6966 39.4033 19.6851 40.1882C19.6723 40.9948 19.6596 41.8027 19.6915 42.6092C19.7081 43.0317 19.4911 43.0355 19.1848 43.0279C18.8964 43.0202 18.6398 43.0572 18.659 42.6182C18.6896 41.8971 18.6666 41.1747 18.6666 40.4524V40.4536Z" fill="black"/>
<path d="M15.0792 43.0713C14.3148 43.0713 13.5554 42.9041 12.8905 42.4421C12.7233 42.326 12.2983 42.2404 12.5944 41.9099C12.7986 41.6827 12.9058 41.1339 13.4558 41.5181C14.0302 41.9188 14.7015 42.0311 15.3983 41.9814C16.0364 41.9354 16.478 41.5576 16.4895 41.0471C16.5048 40.3797 16.0288 40.1984 15.5081 40.0874C15.0946 39.9993 14.6645 39.9789 14.2573 39.8692C13.3563 39.6267 12.8088 38.9018 12.8062 38.0135C12.8037 37.0614 13.332 36.3301 14.2369 36.0621C15.2081 35.7736 16.1245 35.9702 16.9975 36.4296C17.1493 36.51 17.5041 36.5777 17.2246 36.8534C17.0141 37.0601 17.0689 37.6587 16.5023 37.4009C16.0186 37.1813 15.5272 36.9886 14.981 37.0065C14.3671 37.0269 13.9395 37.3498 13.8859 37.8539C13.8196 38.4729 14.1935 38.7333 14.7257 38.8481C15.0563 38.9196 15.3907 38.9822 15.7238 39.0409C16.8839 39.2438 17.5833 40.0044 17.5616 41.0446C17.5373 42.1498 16.7716 42.9079 15.5578 43.0292C15.4098 43.0445 15.2617 43.0547 15.0767 43.0713H15.0792Z" fill="black"/>
<path d="M36.326 40.5316C36.326 40.1487 36.3324 39.7671 36.3234 39.3855C36.3183 39.1302 36.4089 38.8737 35.9776 38.7767C35.6572 38.7052 35.7861 38.1284 35.8818 38.1092C36.6578 37.9625 36.2775 37.3818 36.3068 37.0053C36.3362 36.6249 36.4217 36.4858 36.8199 36.5024C37.153 36.5152 37.3483 36.5662 37.3061 36.9542C37.2819 37.1852 37.3138 37.4213 37.2985 37.6549C37.2819 37.9165 37.361 38.0697 37.6507 38.0275C37.9621 37.9816 38.0464 38.1169 38.0438 38.4181C38.04 38.7078 37.98 38.8622 37.6584 38.8175C37.37 38.7767 37.2972 38.9413 37.2998 39.1979C37.3087 40.0045 37.2998 40.8123 37.3087 41.6189C37.3113 41.8346 37.3495 42.0912 37.6316 42.0784C38.2608 42.0503 38.0234 42.5123 38.0196 42.7816C38.0132 43.2296 37.6354 43.0101 37.4376 43.0024C36.7548 42.9756 36.3872 42.6106 36.3451 41.9329C36.3158 41.4671 36.34 40.9987 36.34 40.5316C36.3349 40.5316 36.3311 40.5316 36.326 40.5316Z" fill="black"/>
<path d="M44.0091 40.4727C44.0091 39.8142 44.0002 39.1569 44.0155 38.4996C44.0194 38.3388 43.8866 38.0568 44.184 38.0453C44.4571 38.0351 44.8898 37.859 44.9868 38.1525C45.1386 38.6145 45.2739 38.2801 45.3977 38.2074C45.8929 37.9177 46.4098 37.9215 46.9318 38.0849C47.2585 38.187 47.4538 38.3465 47.1054 38.6924C46.8373 38.9591 46.688 39.2424 46.1839 38.9974C45.6453 38.7358 45.0672 39.2297 45.0455 39.901C45.0148 40.7918 45.0034 41.6852 45.0416 42.5747C45.0621 43.0623 44.7838 42.9895 44.4852 43.0087C44.1521 43.0304 43.9836 42.9691 44.0028 42.5735C44.0347 41.8741 44.0117 41.1734 44.0117 40.4727H44.0091Z" fill="black"/>
<path d="M35.2085 38.3287C34.8792 38.7996 34.6673 39.2974 33.8939 38.9745C33.4102 38.7715 32.9188 39.2986 32.8997 39.9227C32.8742 40.7906 32.8652 41.661 32.8946 42.5289C32.9086 42.9436 32.7529 43.0228 32.3815 43.0138C32.037 43.0062 31.8481 42.9858 31.8583 42.5467C31.8902 41.1913 31.8672 39.8347 31.8736 38.478C31.8736 38.3274 31.7791 38.0773 32.005 38.0505C32.2858 38.016 32.7338 37.8833 32.8308 38.1232C32.9725 38.4729 33.0477 38.3427 33.2405 38.2317C33.9054 37.8514 34.5563 37.8782 35.2072 38.3287H35.2085Z" fill="black"/>
<path d="M103.82 35.9561C103.82 26.6011 103.82 17.2474 103.82 7.89243C103.82 6.46685 103.787 6.43366 102.354 6.43366C91.6574 6.43366 80.9624 6.43366 70.266 6.43366C69.9049 6.43366 69.5424 6.4158 69.1825 6.45281C68.5354 6.42218 67.8871 6.43877 67.24 6.44132C66.8891 6.4426 66.524 6.38772 66.2139 6.6251C65.0882 6.63659 63.9613 6.68636 62.8369 6.64297C62.2396 6.62 62.1146 6.80761 62.1158 7.37682C62.1324 18.9819 62.1337 30.5882 62.1133 42.1932C62.1133 42.7892 62.2805 42.9092 62.8446 42.9079C72.6667 42.89 82.4875 42.8951 92.3096 42.8951C95.8806 42.8951 99.4528 42.8862 103.024 42.9066C103.495 42.9092 103.642 42.8033 103.621 42.317C103.584 41.4058 103.622 40.4907 103.63 39.5769C103.792 39.3625 103.811 39.111 103.811 38.8571C103.811 38.1015 103.83 37.346 103.8 36.5917C103.824 36.3798 103.819 36.1667 103.819 35.9548L103.82 35.9561ZM86.4797 32.9505C86.1351 32.962 85.9985 32.8089 85.8862 32.5255C85.4701 31.4841 85.0273 30.4529 84.6227 29.4076C84.5002 29.0898 84.3611 28.952 83.9922 28.9584C82.462 28.9839 80.9317 28.9865 79.4015 28.9584C78.9995 28.9507 78.854 29.1205 78.7264 29.4485C78.3243 30.4733 77.884 31.4815 77.4897 32.5089C77.3633 32.8369 77.2025 32.9518 76.8452 32.9505C73.7426 32.9352 70.6387 32.9339 67.5361 32.9505C67.1213 32.9531 67.0001 32.8459 67.0014 32.4222C67.0154 27.067 67.0167 21.7118 67.0014 16.3579C67.0001 15.9124 67.1596 15.8231 67.554 15.8435C68.1053 15.8729 68.6618 15.8869 69.2106 15.841C69.7734 15.7938 69.9572 15.9469 69.9521 16.5531C69.9227 20.761 69.947 24.9675 69.924 29.1753C69.9214 29.7139 70.0184 29.9003 70.6055 29.8798C72.049 29.8288 73.4962 29.8454 74.941 29.8747C75.3532 29.8837 75.5217 29.7331 75.6723 29.3706C77.2217 25.6171 78.7991 21.8739 80.3408 18.1178C80.508 17.7094 80.7071 17.6009 81.1257 17.606C82.7657 17.6252 82.7696 17.6086 83.4039 19.1171C85.2812 23.5828 87.1561 28.051 89.0296 32.5179C89.0781 32.6327 89.1113 32.7527 89.1764 32.9416C88.223 32.9416 87.3526 32.9224 86.4822 32.9505H86.4797ZM98.2953 31.6947C97.3368 32.4834 96.2086 32.8446 95.0102 32.9008C93.42 32.976 91.8234 32.925 90.2306 32.948C89.8949 32.9531 89.8005 32.8523 89.8005 32.5179C89.8107 27.6949 89.8081 22.8732 89.8056 18.0502C89.8056 17.8051 89.7826 17.5971 90.1502 17.6086C91.8055 17.6648 93.4646 17.5091 95.1161 17.7286C97.1071 17.994 98.4918 19.2754 98.8032 21.1362C99.0291 22.4903 98.6182 23.3964 97.2462 24.5655C100.642 25.8928 100.238 30.0981 98.2965 31.6947H98.2953Z" fill="black"/>
<path d="M58.463 27.5774C58.3086 27.2762 58.0202 26.9609 58.0432 26.6725C58.0712 26.3292 58.5715 26.2717 58.8268 26.0382C58.9365 25.9374 59.0552 25.8467 59.1548 25.737C60.5944 24.1327 60.865 22.2847 60.0711 20.3448C59.2939 18.4444 57.6935 17.6634 55.7076 17.62C54.2195 17.5881 52.7301 17.62 51.2432 17.583C50.7736 17.5715 50.6396 17.6838 50.6447 18.1713C50.6715 20.7226 50.6574 23.2738 50.6574 25.8251C50.6574 28.0368 50.6676 30.2473 50.6485 32.4591C50.6447 32.8509 50.7442 32.9785 51.1424 32.9555C51.7359 32.9211 52.3357 32.9083 52.9266 32.9581C53.4384 33.0015 53.5124 32.7947 53.506 32.3455C53.4805 30.7718 53.4933 29.1982 53.4997 27.6259C53.4997 27.4485 53.4154 27.2315 53.6247 27.1039C53.9949 26.878 54.8908 27.1485 55.0924 27.5429C55.9386 29.2033 56.7848 30.865 57.6322 32.5254C57.7343 32.7258 57.7841 32.9568 58.1044 32.9517C59.1012 32.9364 60.0979 32.9453 61.2198 32.9453C60.2587 31.0743 59.3615 29.3271 58.4643 27.5786L58.463 27.5774ZM56.2334 24.2055C55.4268 24.4697 54.596 24.3714 53.7715 24.3944C53.4933 24.402 53.4716 24.2438 53.4741 24.0306C53.4805 23.4576 53.4767 22.8845 53.4767 22.3115C53.4767 21.8023 53.5086 21.2905 53.4678 20.7838C53.4307 20.3167 53.6184 20.2121 54.0459 20.2299C54.744 20.2606 55.4447 20.2133 56.1313 20.4048C57.0681 20.6664 57.5671 21.3045 57.5926 22.3064C57.6169 23.2776 57.1702 23.8966 56.2334 24.2042V24.2055Z" fill="black"/>
<path d="M27.7796 17.7388C25.9661 17.4376 24.1321 17.666 22.3096 17.5856C21.8272 17.5639 21.6676 17.68 21.674 18.1982C21.7046 20.5567 21.6881 22.9153 21.6881 25.2738C21.6881 27.654 21.6995 30.033 21.6778 32.4132C21.674 32.8344 21.7927 32.9594 22.2062 32.9339C22.778 32.8994 23.3561 32.8943 23.9266 32.9339C24.3899 32.9671 24.5418 32.8471 24.5303 32.3519C24.4945 30.7592 24.529 29.1651 24.5086 27.5711C24.5035 27.1792 24.6209 27.0657 25.0114 27.0657C25.8589 27.0657 26.7063 27.0823 27.555 26.9623C29.9097 26.6292 31.4668 24.8539 31.505 22.4099C31.5433 19.9875 30.0718 18.1191 27.7796 17.7375V17.7388ZM27.6737 24.0307C26.7357 24.5144 25.7325 24.3676 24.7447 24.3881C24.4933 24.3932 24.5162 24.1928 24.5162 24.0231C24.5162 23.4513 24.5162 22.8783 24.5162 22.3065C24.5162 21.8407 24.5635 21.3684 24.5048 20.909C24.4282 20.3015 24.6975 20.1815 25.222 20.2351C25.975 20.3117 26.7408 20.2415 27.4733 20.5312C28.2697 20.8464 28.6181 21.4386 28.6386 22.2465C28.659 23.0135 28.4139 23.6491 27.6737 24.0307Z" fill="black"/>
<path d="M30.6222 41.0586C30.6222 40.5277 30.6273 39.9955 30.6209 39.4646C30.6145 39.0192 30.4601 38.6299 30.1028 38.3504C29.4901 37.8718 27.9586 37.8271 27.3077 38.2764C27.1406 38.3912 26.7909 38.5559 27.018 38.7703C27.2082 38.9502 27.3779 39.4531 27.868 39.0957C28.2458 38.8188 28.7218 38.88 29.1621 38.9707C29.6318 39.0677 29.6458 39.4429 29.628 39.8194C29.6063 40.2712 29.2553 40.0529 29.0524 40.0746C28.7167 40.1104 28.3721 40.067 28.0339 40.0887C27.2733 40.1359 26.7283 40.6362 26.653 41.3343C26.5637 42.1626 26.9415 42.765 27.711 42.9934C28.2547 43.1555 28.7997 43.19 29.3127 42.8901C29.4787 42.7931 29.5144 42.8479 29.6752 42.9577C30.1589 43.2908 30.6311 42.9819 30.6311 42.3961C30.6311 41.9494 30.6311 41.504 30.6311 41.0573C30.6286 41.0573 30.626 41.0573 30.6247 41.0573L30.6222 41.0586ZM28.621 42.1256C28.5687 42.123 28.4615 42.1217 28.3568 42.1115C27.9523 42.072 27.5592 41.9699 27.5719 41.4721C27.5847 41.0012 27.9739 40.9335 28.3517 40.908C28.4781 40.8991 28.6261 40.8634 28.7295 40.9131C29.0205 41.0535 29.6203 40.5302 29.6088 41.3215C29.6012 41.9469 29.411 42.1179 28.621 42.1243V42.1256Z" fill="black"/>
<path d="M40.1778 40.9017C40.5581 40.9247 40.9423 40.9068 41.3239 40.9068C41.4936 40.9068 41.6634 40.9068 41.8331 40.9068C42.9716 40.9068 43.043 40.8226 42.8605 39.6982C42.7099 38.7755 41.9684 38.0697 41.0648 37.9906C40.0834 37.9051 39.2576 38.4334 38.9501 39.3613C38.7395 39.9981 38.7088 40.6567 38.8505 41.3076C39.2015 42.9131 40.8696 43.5959 42.262 42.7217C42.821 42.3694 42.8056 42.1639 42.2505 41.8053C41.9863 41.6343 41.8663 41.8321 41.6953 41.924C40.9308 42.335 40.0336 42.0682 39.8358 41.3727C39.7503 41.0715 39.7898 40.88 40.1778 40.903V40.9017ZM40.0553 39.2439C40.4152 38.8265 40.8581 38.8189 41.3137 39.0409C41.6647 39.212 41.8982 39.5514 41.8229 39.9088C41.7489 40.2585 41.3609 40.0045 41.1197 40.0645C41.0202 40.0887 40.9104 40.0683 40.8045 40.0683C40.6781 40.0683 40.5467 40.09 40.4254 40.0632C40.2199 40.0186 39.9213 40.2176 39.8205 39.9318C39.7324 39.6854 39.8868 39.4391 40.0553 39.2426V39.2439Z" fill="black"/>
<path d="M79.8896 26.3113C80.4703 24.7377 81.0255 23.2292 81.642 21.5573C82.1014 22.7876 82.5073 23.8609 82.9042 24.9393C83.2403 25.8531 82.9144 26.3105 81.9266 26.3113H79.8896Z" fill="black"/>
<path d="M92.6366 28.2232C92.6366 27.6731 92.6417 27.1218 92.634 26.5717C92.6302 26.3484 92.6736 26.2118 92.9416 26.2169C93.7648 26.2309 94.5944 26.1684 95.3984 26.4071C96.4028 26.7057 96.9312 27.3834 96.9197 28.3304C96.9082 29.2697 96.4066 29.867 95.3767 30.1478C94.5688 30.3686 93.7405 30.306 92.9161 30.3175C92.6276 30.3214 92.6353 30.1389 92.6353 29.9372C92.6378 29.3654 92.6353 28.7937 92.6353 28.2219L92.6366 28.2232Z" fill="black"/>
<path d="M92.6331 21.7296C92.725 21.3173 92.3829 20.4776 92.7671 20.3538C93.469 20.1279 94.3152 20.1598 95.0631 20.4878C95.5557 20.7035 95.8927 21.0519 95.9692 21.6147C96.1032 22.6089 95.6004 23.3019 94.6062 23.4729C94.5858 23.4768 94.5641 23.4768 94.5436 23.4793C93.2708 23.6495 92.6344 23.0662 92.6344 21.7296H92.6331Z" fill="black"/>
</svg>
