<svg width="23" height="22" viewBox="0 0 23 22" fill="none" xmlns="http://www.w3.org/2000/svg">
<path d="M12.5669 10.6666L15.8825 7.42659C15.9943 7.29905 16.0527 7.135 16.046 6.96722C16.0394 6.79943 15.9682 6.64027 15.8467 6.52154C15.7252 6.40282 15.5624 6.33326 15.3907 6.32678C15.219 6.3203 15.0511 6.37737 14.9206 6.48659L11.605 9.69325L8.2689 6.43325C8.13839 6.32404 7.97051 6.26697 7.79881 6.27345C7.62711 6.27993 7.46424 6.34948 7.34274 6.46821C7.22124 6.58694 7.15006 6.7461 7.14343 6.91389C7.13679 7.08167 7.1952 7.24572 7.30696 7.37325L10.6362 10.6666L7.37519 13.8133C7.30377 13.873 7.24577 13.9466 7.20482 14.0293C7.16387 14.112 7.14086 14.2021 7.13723 14.2939C7.1336 14.3857 7.14943 14.4773 7.18373 14.5628C7.21803 14.6484 7.27005 14.7261 7.33654 14.791C7.40302 14.856 7.48253 14.9068 7.57008 14.9403C7.65763 14.9739 7.75132 14.9893 7.84527 14.9858C7.93923 14.9822 8.03142 14.9598 8.11606 14.9197C8.2007 14.8797 8.27596 14.823 8.33712 14.7533L11.5913 11.5733L14.8251 14.7333C14.9556 14.8425 15.1234 14.8995 15.2951 14.8931C15.4668 14.8866 15.6297 14.817 15.7512 14.6983C15.8727 14.5796 15.9439 14.4204 15.9505 14.2526C15.9572 14.0848 15.8988 13.9208 15.787 13.7933L12.5669 10.6666Z" fill="#F96C4D"/>
<path d="M11.4683 21.3333C9.3094 21.3333 7.19899 20.7078 5.40394 19.5357C3.60888 18.3636 2.20981 16.6977 1.38364 14.7486C0.557464 12.7996 0.3413 10.6548 0.762479 8.58571C1.18366 6.51658 2.22326 4.61596 3.74983 3.1242C5.2764 1.63244 7.22137 0.616538 9.33878 0.204962C11.4562 -0.206614 13.6509 0.00462166 15.6455 0.811956C17.6401 1.61929 19.3448 2.98646 20.5442 4.74059C21.7437 6.49471 22.3839 8.557 22.3839 10.6667C22.3839 13.4956 21.2338 16.2088 19.1868 18.2091C17.1397 20.2095 14.3633 21.3333 11.4683 21.3333ZM11.4683 1.33334C9.57926 1.33334 7.73265 1.88073 6.16198 2.90629C4.59131 3.93185 3.36712 5.38952 2.64422 7.09496C1.92132 8.8004 1.73217 10.677 2.10071 12.4875C2.46924 14.298 3.37889 15.961 4.71464 17.2663C6.05039 18.5716 7.75223 19.4605 9.60497 19.8207C11.4577 20.1808 13.3781 19.996 15.1233 19.2895C16.8686 18.5831 18.3603 17.3869 19.4098 15.852C20.4592 14.3171 21.0194 12.5126 21.0194 10.6667C21.0194 8.19132 20.0131 5.81735 18.222 4.06701C16.4308 2.31667 14.0014 1.33334 11.4683 1.33334Z" fill="#F96C4D"/>
</svg>
