<svg width="16" height="16" viewBox="0 0 16 16" fill="none" xmlns="http://www.w3.org/2000/svg">
<path d="M12.3852 8.66513C12.3071 8.58689 12.2143 8.52481 12.1122 8.48246C12.0101 8.44011 11.9006 8.41831 11.79 8.41831C11.6795 8.41831 11.57 8.44011 11.4679 8.48246C11.3657 8.52481 11.273 8.58689 11.1948 8.66513L9.85297 10.007C9.23085 9.82181 8.06997 9.40089 7.33421 8.66513C6.59845 7.92937 6.17754 6.76849 5.99233 6.14637L7.33421 4.8045C7.41245 4.72638 7.47453 4.63361 7.51688 4.53149C7.55924 4.42936 7.58104 4.31988 7.58104 4.20932C7.58104 4.09876 7.55924 3.98929 7.51688 3.88716C7.47453 3.78503 7.41245 3.69226 7.33421 3.61415L3.96689 0.246826C3.88878 0.168581 3.796 0.106506 3.69388 0.0641532C3.59175 0.0218001 3.48227 0 3.37171 0C3.26115 0 3.15168 0.0218001 3.04955 0.0641532C2.94742 0.106506 2.85465 0.168581 2.77654 0.246826L0.493495 2.52987C0.1736 2.84977 -0.00655235 3.2892 0.000182294 3.7379C0.0195444 4.93666 0.336915 9.10036 3.61837 12.3818C6.89983 15.6633 11.0635 15.9798 12.2631 16H12.2867C12.7312 16 13.1513 15.8249 13.4695 15.5067L15.7525 13.2236C15.8308 13.1455 15.8928 13.0528 15.9352 12.9506C15.9775 12.8485 15.9993 12.739 15.9993 12.6285C15.9993 12.5179 15.9775 12.4084 15.9352 12.3063C15.8928 12.2042 15.8308 12.1114 15.7525 12.0333L12.3852 8.66513ZM12.2783 14.3155C11.2277 14.2978 7.63306 14.0158 4.80872 11.1906C1.97512 8.35702 1.70068 4.74978 1.68384 3.72022L3.37171 2.03235L5.54869 4.20932L4.4602 5.29781C4.36125 5.39668 4.2885 5.51865 4.24852 5.6527C4.20855 5.78674 4.2026 5.92864 4.23122 6.06556C4.25143 6.16237 4.74558 8.45804 6.14302 9.85548C7.54046 11.2529 9.83613 11.7471 9.93294 11.7673C10.0698 11.7967 10.2118 11.7912 10.346 11.7514C10.4802 11.7115 10.6021 11.6385 10.7007 11.5391L11.79 10.4507L13.967 12.6276L12.2783 14.3155Z" fill="black"/>
</svg>
