<svg width="11" height="17" viewBox="0 0 11 17" fill="none" xmlns="http://www.w3.org/2000/svg">
<path d="M9.81031 15.7656C9.94164 15.6383 10.0458 15.4871 10.1169 15.3206C10.188 15.1541 10.2246 14.9757 10.2246 14.7954C10.2246 14.6152 10.188 14.4367 10.1169 14.2702C10.0458 14.1038 9.94164 13.9525 9.81031 13.8252L4.31365 8.4856L9.81031 3.14598C10.0752 2.88866 10.224 2.53967 10.224 2.17577C10.224 1.81187 10.0752 1.46287 9.81031 1.20555C9.54543 0.948234 9.18617 0.803677 8.81156 0.803676C8.43696 0.803676 8.0777 0.948233 7.81281 1.20555L1.31031 7.52227C1.17898 7.64958 1.07479 7.80081 1.0037 7.96729C0.93261 8.13378 0.896019 8.31224 0.896019 8.49248C0.896019 8.67272 0.93261 8.85119 1.0037 9.01767C1.07479 9.18415 1.17898 9.33538 1.31031 9.4627L7.81281 15.7794C8.35115 16.3024 9.25781 16.3024 9.81031 15.7656Z" fill="#535050"/>
</svg>
