<svg width="103" height="108" viewBox="0 0 103 108" fill="none" xmlns="http://www.w3.org/2000/svg">
<path d="M26.5684 41.564V69.4009L37.0196 50.2568L102.18 0L26.5684 41.564Z" fill="#145CC6"/>
<path d="M66.1166 74.5911L37.0176 50.2568L102.178 0L66.1166 74.5911Z" fill="#3777FF"/>
<path d="M26.5672 41.564L8.25977 25.1709L102.179 0L26.5672 41.564Z" fill="#3777FF"/>
<path d="M26.5684 69.4007L47.1589 58.7367L37.0196 50.2566L26.5684 69.4007Z" fill="#0B416D"/>
<path d="M24.1431 71.0603C18.3573 76.1087 17.0669 85.5673 21.3069 91.977C22.9803 94.5154 25.3626 96.5432 27.9719 98.1173C30.5953 99.7055 33.5591 100.868 36.6222 100.982C39.6852 101.095 42.8901 100.046 44.9463 97.7769C48.605 93.7496 47.4847 86.7868 43.3723 83.2274C39.2598 79.6681 37.3171 77.8529 32.212 79.7106C27.1069 81.5683 20.1016 85.3829 16.6131 89.5663C13.1246 93.7496 4.51684 102.598 1 106.739" stroke="black" stroke-width="2" stroke-miterlimit="9.99856" stroke-linecap="round" stroke-dasharray="4 4"/>
<path d="M79.2342 106.356C91.7652 106.356 101.924 96.1978 101.924 83.6668C101.924 71.1359 91.7652 60.9775 79.2342 60.9775C66.7033 60.9775 56.5449 71.1359 56.5449 83.6668C56.5449 96.1978 66.7033 106.356 79.2342 106.356Z" fill="#5EDA81"/>
<path d="M66.2578 83.6808L74.9081 92.3169L92.2087 75.0164" stroke="white" stroke-width="3" stroke-miterlimit="10" stroke-linecap="round"/>
</svg>
