<svg width="62" height="65" viewBox="0 0 62 65" fill="none" xmlns="http://www.w3.org/2000/svg">
<path d="M16.3301 24.9214V41.6122L22.5966 30.1336L61.6665 0L16.3301 24.9214Z" fill="#145CC6"/>
<path d="M40.0413 44.7242L22.5938 30.1336L61.6637 0L40.0413 44.7242Z" fill="#3777FF"/>
<path d="M16.3286 24.9214L5.35156 15.0923L61.665 0L16.3286 24.9214Z" fill="#3777FF"/>
<path d="M16.3301 41.6122L28.676 35.2182L22.5966 30.1335L16.3301 41.6122Z" fill="#0B416D"/>
<path d="M14.8764 42.6072C11.4073 45.6341 10.6336 51.3054 13.1759 55.1487C14.1792 56.6706 15.6076 57.8865 17.1721 58.8303C18.7451 59.7826 20.5222 60.4799 22.3588 60.5479C24.1954 60.6159 26.117 59.9867 27.3499 58.6263C29.5436 56.2115 28.8719 52.0367 26.4061 49.9025C23.9403 47.7683 22.7754 46.68 19.7144 47.7938C16.6535 48.9077 12.4531 51.1949 10.3615 53.7032C8.26981 56.2115 3.10867 61.5172 1 64" stroke="black" stroke-width="2" stroke-miterlimit="9.99856" stroke-linecap="round" stroke-dasharray="4 4"/>
</svg>
